# xmcd
#
# Track frame offsets:
#	150
#	14637
#	30691
#	47122
#	58061
#	70221
#	85201
#	101829
#
# Disc length: 1528 seconds
#
# Revision: 0
# Processed by: cddbd v1.5.2PL0 Copyright (c) Steve Scherf et al.
# Submitted via: EasyCDDAExtractor 12.1.0.1
#
DISCID=6d05f608
DTITLE=Sleepwellers - Every Scar Tells A Tale
DYEAR=2008
DGENRE=Blues
TTITLE0=Half Empty - Half Full
TTITLE1=Every Scar Tells A Tale
TTITLE2=Night Drive Trip
TTITLE3=Don't Break The Rules (Just Bend A Bit)
TTITLE4=Mixed Signals
TTITLE5=Maximising Blue
TTITLE6=No Way This Way
TTITLE7=Engine Roams
EXTD=
EXTT0=
EXTT1=
EXTT2=
EXTT3=
EXTT4=
EXTT5=
EXTT6=
EXTT7=
PLAYORDER=
